# Alias Wavefront OBJ File Exported from SketchUp
# with OBJexporter (c) 2010-2011 TIG
# Units = meters

mtllib kura_lleg.mtl

g kura_lleg_c_rleg-Material3
usemtl Material3
v 0.002729 0.191788 0.000000
v 0.050676 0.200000 -0.050000
v 0.050676 0.000000 -0.000000
v 0.000676 0.200000 0.000000
v 0.050676 0.200000 0.050000
v 0.002729 0.191788 0.000000
v 0.050676 0.000000 -0.000000
v 0.000676 0.200000 0.000000
v 0.050676 0.200000 0.050000
v 0.050676 0.000000 -0.000000
v 0.050676 0.200000 -0.050000
vn -0.696311 -0.174078 -0.696311
vn -0.704708 -0.082300 -0.704708
vn -0.696311 -0.174078 -0.696311
vn -0.700163 -0.139798 -0.700163
vn -0.704708 -0.082300 0.704708
vn -0.696311 -0.174078 0.696311
vn -0.696311 -0.174078 0.696311
vn -0.700163 -0.139798 0.700163
vn 1.000000 0.000000 -0.000000
vn 1.000000 0.000000 -0.000000
vn 1.000000 0.000000 -0.000000
vt 1.319776 4.594245
vt 1.031197 4.804238
vt 1.178511 -0.309951
vt 1.325825 4.804238
vt 0.441942 6.353992
vt 0.153363 6.143999
vt 0.294628 1.239803
vt 0.147314 6.353992
vt -1.250000 5.036105
vt -1.041667 0.000000
vt -0.833333 5.036105
f 1/1/1 2/2/2 3/3/3
f 2/2/2 1/1/1 4/4/4
f 5/5/5 6/6/6 7/7/7
f 6/6/6 5/5/5 8/8/8
f 9/9/9 10/10/10 11/11/11

g kura_lleg_c_rleg-Material1
usemtl Material1
v 0.050676 0.225584 -0.000000
v 0.050676 0.200000 -0.050000
v 0.050676 0.225584 -0.050000
v 0.050676 0.200000 0.050000
v 0.050676 0.225584 0.050000
v 0.000676 0.200000 0.000000
v 0.050676 0.225584 -0.050000
v 0.050676 0.200000 -0.050000
v 0.000676 0.200000 0.000000
v 0.050676 0.225584 -0.000000
v 0.050676 0.225584 -0.050000
v 0.050676 0.225584 0.050000
v 0.050676 0.225584 0.050000
v 0.000676 0.200000 0.000000
v 0.050676 0.200000 0.050000
vn 1.000000 0.000000 -0.000000
vn 1.000000 0.000000 -0.000000
vn 1.000000 0.000000 -0.000000
vn 1.000000 0.000000 -0.000000
vn 1.000000 0.000000 -0.000000
vn -0.700163 -0.139798 -0.700163
vn -0.707107 0.000000 -0.707107
vn -0.704708 -0.082300 -0.704708
vn -0.455517 0.890227 0.000000
vn -0.455517 0.890227 0.000000
vn -0.455517 0.890227 0.000000
vn -0.455517 0.890227 0.000000
vn -0.707107 0.000000 0.707107
vn -0.700163 -0.139798 0.700163
vn -0.704708 -0.082300 0.704708
vt -2.500000 2.992600
vt -2.000000 2.653199
vt -2.000000 2.992600
vt -3.000000 2.653199
vt -3.000000 2.992600
vt 3.181981 2.653199
vt 2.474874 2.992600
vt 2.474874 2.653199
vt 2.500000 -1.153372
vt 2.500000 -0.408281
vt 2.000000 -0.408281
vt 3.000000 -0.408281
vt 1.060660 2.992600
vt 0.353553 2.653199
vt 1.060660 2.653199
f 12/12/12 13/13/13 14/14/14
f 13/13/13 12/12/12 15/15/15
f 15/15/15 12/12/12 16/16/16
f 17/17/17 18/18/18 19/19/19
f 20/20/20 21/21/21 22/22/22
f 21/21/21 20/20/20 23/23/23
f 24/24/24 25/25/25 26/26/26

